<svg width="100" height="40" viewBox="0 0 100 40" fill="none" xmlns="http://www.w3.org/2000/svg">
<path d="M21.625 23.5375C21.625 26.9125 18.9125 29.625 15.5375 29.625C12.1625 29.625 9.4375 26.9125 9.4375 23.5375C9.4375 20.1625 12.1625 17.4375 15.5375 17.4375C18.9125 17.4375 21.625 20.1625 21.625 23.5375ZM15.5375 0C10.65 0 6.25 1.5 2.875 4.375L0 0.875V11.8125H10.9375L7.25 8.125C10.0625 5.875 12.65 4.8125 15.525 4.8125C22.65 4.8125 28.5125 10.6875 28.5125 17.8125C28.5125 20.0625 27.9125 22.2125 26.85 24.125L30.9375 28.2125C33.4375 25.15 34.9375 21.5625 34.9375 17.8125C34.9375 7.975 26.275 0 15.5375 0Z" fill="black"/>
<path d="M49.25 10H56.5V29.25H49.25V10Z" fill="black"/>
<path d="M68.75 10H76V29.25H68.75V10Z" fill="black"/>
<path d="M88.25 10H95.5V29.25H88.25V10Z" fill="black"/>
</svg>
